#!OML:ASF E:/inclinewalkrobotboard/Project1/Captureday1/Session1/subject1.ASF
:FULLY-SPECIFIED
:DEGREES
213
root 0 0 0 1.845584460425461 -3.897356530819179 2.1769635494578305
lowerback 11.986635857303327 1.1664198202896692 -0.09573143611393431
upperback -4.457303635265826 1.466521266094846 -0.8564464709307725
thorax -11.566853235989694 0.6791694868524556 -1.136952822503588
lowerneck -6.239795671412554 1.7520603998650774 4.832950006292011
upperneck 18.1780976151923 3.285169186850756 -8.488200134764991
head 6.698308130561074 1.2222937196451285 -3.2931088224542453
rclavicle -2.150880730712194E-15 -1.102193928799578E-15
rhumerus 23.266981148716347 17.85202799072828 -48.50577216962391
rradius 74.9065068015889
rwrist 25.80823306322403
rhand -34.81927612779984 -58.10378752629067
rfingers 7.12502
rthumb -7.962054601037176 -88.01422514284135
lclavicle -1.1154459125167696E-15 -8.410695963323558E-16
lhumerus 22.433909539518197 -14.542509011932982 45.765174366266166
lradius 71.33859300491022
lwrist -21.387708854128284
lhand -45.27240069615073 -69.02716029239747
lfingers 7.125020000000012
lthumb -18.046559960504062 -39.77891421660024
rfemur -24.521419835118138 -0.7897823235378847 18.596808979151078
rtibia 44.945152342914355
rfoot -33.01253353672821 -17.87455096224863
rtoes -23.039566434194047
lfemur -26.58391387193325 1.8240303323307048 -15.430504763346075
ltibia 44.91035949848496
lfoot -32.29657931597895 3.375089089269613
ltoes -21.480863644422172
214
root 0 0 0 1.8457213418682352 -3.8962729523223887 2.1787659477145245
lowerback 11.986283012793098 1.1658535589849541 -0.09772154843526393
upperback -4.457366373866857 1.465494536219126 -0.8566233174526411
thorax -11.566668414478084 0.6787279829781065 -1.1358516259714195
lowerneck -6.239600962951709 1.7521933230774211 4.832799454385812
upperneck 18.177894677521024 3.2853806841853475 -8.48810451432554
head 6.698207606516793 1.222396207904664 -3.293049054502122
rclavicle -2.149053875407234E-15 -1.101635805466236E-15
rhumerus 23.266802225817756 17.852165888770863 -48.50630881381809
rradius 74.90634697210399
rwrist 25.807718584256413
rhand -34.81911425785215 -58.10309267131182
rfingers 7.12502
rthumb -7.961893291732656 -88.0134434855373
lclavicle -1.1134180990892252E-15 -8.402373060706508E-16
lhumerus 22.43390789376604 -14.542883669511909 45.76544480923779
lradius 71.33865765094703
lwrist -21.387334544178948
lhand -45.27231726298441 -69.0263916258876
lfingers 7.125020000000012
lthumb -18.04647580259424 -39.77812732093729
rfemur -24.53172471020219 -0.793176704933209 18.590539142534155
rtibia 44.9605364237994
rfoot -33.00302277183049 -17.874494172672012
rtoes -23.03980592395551
lfemur -26.55948925083912 1.8177640780070727 -15.447521268547863
ltibia 44.85130737766907
lfoot -32.32664378153041 3.3935356056772488
ltoes -21.476951556264236
215
root 0 0 0 1.8460622554748105 -3.8934111546859884 2.1774545277254664
lowerback 11.98603918775514 1.1642747132810354 -0.09816829766428126
upperback -4.457485439443665 1.4634308899710105 -0.8553338409053041
thorax -11.566728985411416 0.6777489880752436 -1.1339117858475887
lowerneck -6.2394941389348215 1.7532006672171152 4.833714239063127
upperneck 18.175948240359453 3.2868756645773534 -8.48961025549572
head 6.697486173218319 1.2230142853805113 -3.2935314192371905
rclavicle -2.1580320342883565E-15 -1.0949741837667597E-15
rhumerus 23.257712122242623 17.838930070283382 -48.49781911881432
rradius 74.89803671491856
rwrist 25.817178647938288
rhand -34.818846893956604 -58.1029441277591
rfingers 7.12502
rthumb -7.961957473331632 -88.01433506296846
lclavicle -1.1156695007158932E-15 -8.34330418385972E-16
lhumerus 22.436278734971197 -14.543575751243765 45.76366739151481
lradius 71.34036676220256
lwrist -21.389111645612942
lhand -45.272536221808195 -69.02756450651884
lfingers 7.125020000000012
lthumb -18.047099189337082 -39.78038689678874
rfemur -24.534606808068443 -0.7826685594698786 18.607870396204014
rtibia 44.8927283610873
rfoot -33.04563533077271 -17.877769598309076
rtoes -23.032807292614564
lfemur -26.563623193112257 1.8242933319748347 -15.419567038568424
ltibia 44.95722746141781
lfoot -32.24242900642201 3.339739505824583
ltoes -21.49701501669543
216
root 0 0 0 1.8453754141914902 -3.8937825954079033 2.1770178942394267
lowerback 11.985708175906034 1.1647988440237844 -0.09731531743824029
upperback -4.45764339686653 1.4642354457213165 -0.8555421952330963
thorax -11.566625600809783 0.6780880436532257 -1.1348265815081136
lowerneck -6.238699204010515 1.752785173907238 4.833451662561182
upperneck 18.17688183119577 3.2862978209755944 -8.489090668047215
head 6.697702382027622 1.222778905076666 -3.293352207695417
rclavicle -2.150039695679972E-15 -1.1018365615384574E-15
rhumerus 23.26152259616112 17.8448699433418 -48.501758191724775
rradius 74.90194139229195
rwrist 25.81277506838172
rhand -34.81905339064642 -58.10342940347225
rfingers 7.12502
rthumb -7.961806558939712 -88.01398197291007
lclavicle -1.1149841094587226E-15 -8.409843512349522E-16
lhumerus 22.434957191625784 -14.545014175713947 45.7660981304068
lradius 71.34006018270497
lwrist -21.386172601459563
lhand -45.27233175228219 -69.0247210852514
lfingers 7.125020000000012
lthumb -18.04648238359303 -39.77649604676891
rfemur -24.521679285551745 -0.7830055687891448 18.60397220722115
rtibia 44.90210608232196
rfoot -33.030977021720055 -17.875757556618108
rtoes -23.044937122037645
lfemur -26.57050278812548 1.8243108664597485 -15.423158397063101
ltibia 44.941887262968415
lfoot -32.26220978030881 3.3503589159979157
ltoes -21.494937469568136
